<svg width="19" height="19" viewBox="0 0 19 19" fill="none" xmlns="http://www.w3.org/2000/svg">
<path d="M13.9268 1.29541C14.7298 1.29541 15.4163 1.58049 15.9865 2.15066C16.5567 2.72083 16.8417 3.40739 16.8417 4.21035V13.9268C16.8417 14.7298 16.5567 15.4163 15.9865 15.9865C15.4163 16.5567 14.7298 16.8417 13.9268 16.8417H12.024V10.8196H14.0381L14.3418 8.47142H12.024V6.97347C12.024 6.5956 12.1033 6.31221 12.2619 6.12328C12.4204 5.93435 12.7291 5.83988 13.188 5.83988L14.4228 5.82976V3.73465C13.9977 3.67392 13.3971 3.64355 12.6212 3.64355C11.7035 3.64355 10.9697 3.91346 10.4198 4.45326C9.86985 4.99306 9.59489 5.75554 9.59489 6.74068V8.47142H7.57062V10.8196H9.59489V16.8417H4.21035C3.40739 16.8417 2.72083 16.5567 2.15066 15.9865C1.58049 15.4163 1.29541 14.7298 1.29541 13.9268V4.21035C1.29541 3.40739 1.58049 2.72083 2.15066 2.15066C2.72083 1.58049 3.40739 1.29541 4.21035 1.29541H13.9268Z" fill="#2B2A29"/>
</svg>
