<svg width="17" height="17" viewBox="0 0 17 17" fill="none" xmlns="http://www.w3.org/2000/svg">
<path d="M8.0845 6.07954C7.68795 6.07954 7.30032 6.19713 6.9706 6.41744C6.64089 6.63774 6.38391 6.95088 6.23216 7.31723C6.08041 7.68359 6.04071 8.08672 6.11807 8.47565C6.19543 8.86457 6.38638 9.22182 6.66678 9.50222C6.94718 9.78261 7.30443 9.97357 7.69335 10.0509C8.08227 10.1283 8.4854 10.0886 8.85176 9.93684C9.21812 9.78508 9.53125 9.5281 9.75156 9.19839C9.97186 8.86868 10.0895 8.48104 10.0895 8.0845C10.0895 7.8212 10.0376 7.56049 9.93684 7.31723C9.83608 7.07398 9.68839 6.85296 9.50222 6.66678C9.31604 6.4806 9.09501 6.33292 8.85176 6.23216C8.60851 6.1314 8.34779 6.07954 8.0845 6.07954ZM16.1124 4.09884C16.1082 3.47452 15.9932 2.85591 15.7729 2.27174C15.6106 1.84428 15.3595 1.45609 15.0362 1.13279C14.7129 0.809482 14.3247 0.55841 13.8973 0.39614C13.3131 0.175809 12.6945 0.0608446 12.0702 0.0565914C11.0273 -5.42108e-08 10.72 0 8.0845 0C5.44895 0 5.14174 -5.42108e-08 4.09884 0.0565914C3.47452 0.0608446 2.85591 0.175809 2.27174 0.39614C1.84428 0.55841 1.45609 0.809482 1.13279 1.13279C0.809482 1.45609 0.55841 1.84428 0.39614 2.27174C0.175809 2.85591 0.0608446 3.47452 0.0565914 4.09884C-5.42108e-08 5.14174 0 5.44895 0 8.0845C0 10.72 -5.42108e-08 11.0273 0.0565914 12.0702C0.0652935 12.6967 0.180102 13.3172 0.39614 13.9053C0.557691 14.3308 0.808554 14.7168 1.13183 15.0372C1.45375 15.3624 1.84277 15.6135 2.27174 15.7729C2.85591 15.9932 3.47452 16.1082 4.09884 16.1124C5.14174 16.169 5.44895 16.169 8.0845 16.169C10.72 16.169 11.0273 16.169 12.0702 16.1124C12.6945 16.1082 13.3131 15.9932 13.8973 15.7729C14.3262 15.6135 14.7152 15.3624 15.0372 15.0372C15.3604 14.7168 15.6113 14.3308 15.7729 13.9053C15.993 13.3183 16.1079 12.6971 16.1124 12.0702C16.169 11.0273 16.169 10.72 16.169 8.0845C16.169 5.44895 16.169 5.14174 16.1124 4.09884ZM14.0589 10.5664C14.033 11.0653 13.9265 11.5568 13.7436 12.0216C13.5867 12.4094 13.3534 12.7617 13.0576 13.0576C12.7617 13.3534 12.4094 13.5867 12.0216 13.7436C11.5524 13.9163 11.0582 14.0119 10.5584 14.0266C9.91968 14.0266 9.7499 14.0266 8.0845 14.0266C6.41909 14.0266 6.24932 14.0266 5.61064 14.0266C5.1108 14.0119 4.61664 13.9163 4.14735 13.7436C3.74644 13.5947 3.38439 13.357 3.08828 13.0484C2.79535 12.7583 2.56913 12.408 2.42535 12.0216C2.25198 11.5528 2.15905 11.0581 2.15048 10.5584C2.15048 9.91968 2.15048 9.7499 2.15048 8.0845C2.15048 6.41909 2.15048 6.24932 2.15048 5.61064C2.15905 5.11088 2.25198 4.61615 2.42535 4.14735C2.57433 3.74644 2.81201 3.38439 3.12062 3.08828C3.41193 2.79693 3.76193 2.57095 4.14735 2.42535C4.61664 2.25267 5.1108 2.15711 5.61064 2.14239C6.24932 2.14239 6.41909 2.14239 8.0845 2.14239C9.7499 2.14239 9.91968 2.14239 10.5584 2.14239C11.0582 2.15711 11.5524 2.25267 12.0216 2.42535C12.4226 2.57433 12.7846 2.81201 13.0807 3.12062C13.3736 3.41065 13.5999 3.76102 13.7436 4.14735C13.9163 4.61664 14.0119 5.1108 14.0266 5.61064C14.0266 6.24932 14.0266 6.41909 14.0266 8.0845C14.0266 9.7499 14.0832 9.91968 14.0589 10.5584V10.5664ZM12.7654 4.55157C12.6692 4.29043 12.5174 4.05328 12.3206 3.85648C12.1238 3.65968 11.8866 3.50791 11.6255 3.41166C11.2669 3.28737 10.8893 3.22716 10.5098 3.2338C9.87926 3.2338 9.7014 3.2338 8.0845 3.2338C6.4676 3.2338 6.28974 3.2338 5.65915 3.2338C5.27778 3.23753 4.90007 3.30869 4.54349 3.444C4.28634 3.53588 4.0517 3.68145 3.85516 3.87102C3.65862 4.06059 3.50468 4.28983 3.40357 4.54349C3.28617 4.90354 3.22881 5.28047 3.2338 5.65915C3.2338 6.28974 3.2338 6.4676 3.2338 8.0845C3.2338 9.7014 3.2338 9.87926 3.2338 10.5098C3.24181 10.8908 3.31284 11.2678 3.444 11.6255C3.54025 11.8866 3.69202 12.1238 3.88882 12.3206C4.08562 12.5174 4.32277 12.6692 4.58391 12.7654C4.92885 12.8923 5.29183 12.9632 5.65915 12.9756C6.28974 12.9756 6.4676 12.9756 8.0845 12.9756C9.7014 12.9756 9.87926 12.9756 10.5098 12.9756C10.8912 12.9719 11.2689 12.9007 11.6255 12.7654C11.8866 12.6692 12.1238 12.5174 12.3206 12.3206C12.5174 12.1238 12.6692 11.8866 12.7654 11.6255C12.9007 11.2689 12.9719 10.8912 12.9756 10.5098C12.9756 9.87926 12.9756 9.7014 12.9756 8.0845C12.9756 6.4676 12.9756 6.28974 12.9756 5.65915C12.9759 5.2774 12.9046 4.89898 12.7654 4.54349V4.55157ZM8.0845 11.1728C7.67932 11.1728 7.27812 11.0928 6.90389 10.9375C6.52965 10.7822 6.18974 10.5546 5.90361 10.2678C5.61748 9.98087 5.39076 9.64036 5.23645 9.26572C5.08213 8.89108 5.00324 8.48967 5.0043 8.0845C5.00431 7.47335 5.18564 6.87594 5.52534 6.3679C5.86504 5.85987 6.34784 5.46404 6.91262 5.23054C7.4774 4.99703 8.09877 4.93635 8.69805 5.05616C9.29734 5.17598 9.8476 5.47092 10.2792 5.90363C10.7108 6.33634 11.0043 6.88738 11.1225 7.48698C11.2407 8.08657 11.1784 8.70778 10.9435 9.27194C10.7085 9.83611 10.3114 10.3179 9.80245 10.6562C9.29352 10.9946 8.69564 11.1744 8.0845 11.1728ZM11.3183 5.60256C11.1396 5.58364 10.9742 5.49925 10.854 5.36566C10.7338 5.23206 10.6673 5.05871 10.6673 4.87899C10.6673 4.69928 10.7338 4.52593 10.854 4.39233C10.9742 4.25873 11.1396 4.17435 11.3183 4.15543C11.497 4.17435 11.6624 4.25873 11.7826 4.39233C11.9028 4.52593 11.9693 4.69928 11.9693 4.87899C11.9693 5.05871 11.9028 5.23206 11.7826 5.36566C11.6624 5.49925 11.497 5.58364 11.3183 5.60256Z" fill="#2B2A29"/>
</svg>
