<svg width="419" height="474" viewBox="0 0 419 474" fill="none" xmlns="http://www.w3.org/2000/svg">
<path style="mix-blend-mode:screen" opacity="0.52" d="M552.746 332.645L547.267 238.741M552.746 332.645L552.752 332.654M552.746 332.645L516.025 427.596L440.022 289.53M552.746 332.645L440.022 289.53M547.267 238.741L586.455 273.787M547.267 238.741L440.028 289.539M547.267 238.741L547.273 238.751L552.752 332.654M547.267 238.741L438.024 246.793L440.028 289.539M547.267 238.741L548.678 170.21M547.267 238.741L611.16 170.58M547.267 238.741L547.271 238.725M586.455 273.787L552.752 332.654M586.455 273.787L611.16 170.58M552.752 332.654L440.028 289.539M440.028 289.539L516.031 427.606L346.646 468.03M440.028 289.539L440.022 289.53M440.022 289.53L346.646 468.03M440.022 289.53L371.777 261.803M440.022 289.53L440.016 289.52L346.64 468.02L371.777 261.803M440.022 289.53L438.019 246.783M548.678 170.21L374.834 185.399M548.678 170.21L438.019 246.783M548.678 170.21L547.261 238.731L438.019 246.783M548.678 170.21L547.271 238.725M374.834 185.399L438.019 246.783M374.834 185.399L350.435 1.23648M374.834 185.399L417.283 49.5986L417.299 49.6028M374.834 185.399L267.224 190.601L350.435 1.23648M438.019 246.783L371.777 261.803M611.16 170.58L548.688 170.205L547.271 238.725M611.16 170.58L547.271 238.725M346.646 468.03L328.159 500.309L238.281 399.683M346.646 468.03L238.281 399.683M346.646 468.03L401.718 454.887M374.844 185.393L371.787 261.797M374.844 185.393L438.029 246.778L371.787 261.797M374.844 185.393L286.829 286.277M374.844 185.393L374.849 185.403M374.844 185.393L214.504 262.865M374.844 185.393L267.234 190.596L214.504 262.865M371.787 261.797L238.285 399.667M371.787 261.797L346.65 468.015L238.285 399.667M371.787 261.797L286.823 286.268L238.285 399.667M417.299 49.6028L558.458 170.272L558.464 170.282L374.849 185.403M417.299 49.6028L374.849 185.403M417.299 49.6028L350.435 1.23648M374.849 185.403L371.792 261.807L286.829 286.277M238.281 399.683L189.778 473.391M238.281 399.683L160.667 385.503M238.281 399.683L214.494 262.871L160.667 385.503M286.829 286.277L214.504 262.865M286.829 286.277L238.291 399.677M189.778 473.391L283.053 579.11M189.778 473.391L189.784 473.401L328.174 500.313L283.053 579.11M189.778 473.391L122.022 688.619M189.778 473.391L63.9585 666.718M189.778 473.391L189.772 473.382L122.016 688.609L63.9585 666.718M189.778 473.391L14.6439 469.535L63.9585 666.718M189.778 473.391L160.677 385.497L16.2052 468.19L189.778 473.391ZM189.778 473.391L189.768 473.397L160.667 385.503M283.053 579.11L407.677 515.571L328.168 500.303M283.053 579.11L283.047 579.1L328.168 500.303M283.053 579.11L414.138 574.749M283.053 579.11L283.049 579.126L407.673 515.586L414.138 574.749M283.053 579.11L122.022 688.619M283.053 579.11L283.043 579.116M283.053 579.11L387.32 676.628L414.138 574.749M328.168 500.303L238.291 399.677M328.168 500.303L328.178 500.298L189.788 473.386L238.291 399.677M238.291 399.677L214.504 262.865M407.667 515.576L414.133 574.739L514.204 430.777L407.662 515.567L407.667 515.576ZM407.667 515.576L346.999 467.33L328.122 500.291L407.667 515.576ZM122.022 688.619L339.117 705.764M339.117 705.764L283.043 579.116M339.117 705.764L387.31 676.633L283.043 579.116M339.117 705.764L288.025 795.01L182.325 693.382L339.117 705.764ZM63.9585 666.718L0.860862 664.626L14.1438 473.194L63.9585 666.718Z" stroke="url(#paint0_linear_16_1736)" stroke-width="1.61" stroke-miterlimit="10"/>
<defs>
<linearGradient id="paint0_linear_16_1736" x1="485.832" y1="75.0637" x2="111.342" y2="729.224" gradientUnits="userSpaceOnUse">
<stop stop-color="#95D3EC"/>
<stop offset="0.15" stop-color="#92CFE8" stop-opacity="0.99"/>
<stop offset="0.29" stop-color="#8CC6DD" stop-opacity="0.94"/>
<stop offset="0.41" stop-color="#80B6CB" stop-opacity="0.86"/>
<stop offset="0.53" stop-color="#709FB2" stop-opacity="0.76"/>
<stop offset="0.65" stop-color="#5C8292" stop-opacity="0.62"/>
<stop offset="0.77" stop-color="#425E69" stop-opacity="0.45"/>
<stop offset="0.88" stop-color="#24343A" stop-opacity="0.25"/>
<stop offset="0.99" stop-color="#030405" stop-opacity="0.02"/>
<stop offset="1" stop-opacity="0"/>
</linearGradient>
</defs>
</svg>
