<svg width="16" height="16" viewBox="0 0 16 16" fill="none" xmlns="http://www.w3.org/2000/svg">
<g clip-path="url(#clip0_36_166)">
<path d="M13.4784 0H2.12817C1.56375 0 1.02244 0.224217 0.623327 0.623327C0.224217 1.02244 0 1.56375 0 2.12817L0 13.4784C0 14.0428 0.224217 14.5842 0.623327 14.9833C1.02244 15.3824 1.56375 15.6066 2.12817 15.6066H13.4784C14.0428 15.6066 14.5842 15.3824 14.9833 14.9833C15.3824 14.5842 15.6066 14.0428 15.6066 13.4784V2.12817C15.6066 1.56375 15.3824 1.02244 14.9833 0.623327C14.5842 0.224217 14.0428 0 13.4784 0ZM5.32043 12.3505C5.32055 12.3938 5.31212 12.4366 5.29564 12.4767C5.27916 12.5167 5.25495 12.553 5.22439 12.5837C5.19383 12.6143 5.15752 12.6386 5.11755 12.6552C5.07758 12.6718 5.03473 12.6804 4.99145 12.6804H3.58952C3.54616 12.6805 3.50322 12.672 3.46314 12.6555C3.42307 12.639 3.38666 12.6147 3.356 12.584C3.32535 12.5533 3.30106 12.5169 3.28452 12.4769C3.26799 12.4368 3.25953 12.3938 3.25965 12.3505V6.47319C3.25965 6.3857 3.2944 6.3018 3.35627 6.23994C3.41813 6.17808 3.50203 6.14332 3.58952 6.14332H4.99145C5.07878 6.14356 5.16246 6.17842 5.22413 6.24025C5.2858 6.30209 5.32043 6.38586 5.32043 6.47319V12.3505ZM4.29004 5.58645C4.02697 5.58645 3.76981 5.50844 3.55107 5.36229C3.33234 5.21613 3.16185 5.0084 3.06118 4.76535C2.96051 4.52231 2.93417 4.25487 2.98549 3.99685C3.03681 3.73884 3.16349 3.50183 3.34951 3.31582C3.53553 3.1298 3.77253 3.00312 4.03055 2.95179C4.28856 2.90047 4.556 2.92681 4.79905 3.02748C5.0421 3.12816 5.24983 3.29864 5.39598 3.51738C5.54214 3.73611 5.62015 3.99327 5.62015 4.25634C5.62015 4.60911 5.48001 4.94743 5.23057 5.19687C4.98112 5.44632 4.64281 5.58645 4.29004 5.58645ZM12.6484 12.3735C12.6486 12.4134 12.6408 12.4529 12.6256 12.4897C12.6104 12.5266 12.5881 12.5601 12.5599 12.5882C12.5317 12.6164 12.4982 12.6388 12.4614 12.654C12.4245 12.6692 12.385 12.6769 12.3452 12.6768H10.8377C10.7979 12.6769 10.7584 12.6692 10.7215 12.654C10.6847 12.6388 10.6512 12.6164 10.623 12.5882C10.5948 12.5601 10.5725 12.5266 10.5573 12.4897C10.5421 12.4529 10.5343 12.4134 10.5345 12.3735V9.62022C10.5345 9.20878 10.655 7.81837 9.45884 7.81837C8.5322 7.81837 8.34332 8.76984 8.30608 9.19725V12.3771C8.30609 12.4568 8.27474 12.5332 8.21883 12.59C8.16291 12.6467 8.08691 12.6792 8.00725 12.6804H6.55122C6.51144 12.6804 6.47205 12.6725 6.4353 12.6573C6.39856 12.642 6.36519 12.6197 6.3371 12.5915C6.30901 12.5633 6.28675 12.5299 6.27161 12.4931C6.25646 12.4563 6.24873 12.4169 6.24885 12.3771V6.44747C6.24873 6.40769 6.25646 6.36828 6.27161 6.33149C6.28675 6.2947 6.30901 6.26126 6.3371 6.23309C6.36519 6.20492 6.39856 6.18256 6.4353 6.16731C6.47205 6.15206 6.51144 6.14421 6.55122 6.14421H8.00725C8.08768 6.14421 8.16481 6.17616 8.22169 6.23303C8.27856 6.28991 8.31051 6.36704 8.31051 6.44747V6.96001C8.65457 6.44304 9.16444 6.04578 10.2525 6.04578C12.6626 6.04578 12.6467 8.29632 12.6467 9.53244L12.6484 12.3735Z" fill="#2B2A29"/>
</g>
<defs>
<clipPath id="clip0_36_166">
<rect width="15.6066" height="15.6066" fill="white"/>
</clipPath>
</defs>
</svg>
