<svg width="510" height="365" viewBox="0 0 510 365" fill="none" xmlns="http://www.w3.org/2000/svg">
<path style="mix-blend-mode:screen" opacity="0.52" d="M-110.799 -8.86445L-129.81 83.2578M-110.799 -8.86445L-110.802 -8.87537M-110.799 -8.86445L-50.7533 -91.0766L-13.0743 61.9567M-110.799 -8.86445L-13.0743 61.9567M-129.81 83.2578L-158.592 39.2635M-129.81 83.2578L-13.0772 61.9457M-129.81 83.2578L-129.813 83.2468L-110.802 -8.87537M-129.81 83.2578L-22.2059 103.754L-13.0772 61.9457M-129.81 83.2578L-148.91 149.088M-129.81 83.2578L-209.168 132.559M-129.81 83.2578L-129.818 83.2716M-158.592 39.2635L-110.802 -8.87537M-158.592 39.2635L-209.168 132.559M-110.802 -8.87537L-13.0772 61.9457M-13.0772 61.9457L-50.7563 -91.0876L123.319 -86.2941M-13.0772 61.9457L-13.0743 61.9567M-13.0743 61.9567L123.319 -86.2941M-13.0743 61.9567L45.669 106.402M-13.0743 61.9567L-13.0714 61.9676L123.322 -86.2832L45.669 106.402M-13.0743 61.9567L-22.2029 103.765M-148.91 149.088L22.9415 179.411M-148.91 149.088L-22.2029 103.765M-148.91 149.088L-129.807 83.2687L-22.2029 103.765M-148.91 149.088L-129.818 83.2716M22.9415 179.411L-22.2029 103.765M22.9415 179.411L-1.15613 363.613M22.9415 179.411L-53.2093 299.597L-53.2232 299.589M22.9415 179.411L128.231 202.238L-1.15613 363.613M-22.2029 103.765L45.669 106.402M-209.168 132.559L-148.921 149.091L-129.818 83.2716M-209.168 132.559L-129.818 83.2716M123.319 -86.2941L149.531 -112.688L210.302 7.77148M123.319 -86.2941L210.302 7.77148M123.319 -86.2941L66.7218 -87.8528M22.9306 179.414L45.6581 106.405M22.9306 179.414L-22.2139 103.768L45.6581 106.405M22.9306 179.414L134.057 104.748M22.9306 179.414L22.9277 179.403M22.9306 179.414L197.858 146.081M22.9306 179.414L128.22 202.24L197.858 146.081M45.6581 106.405L210.294 7.78535M45.6581 106.405L123.311 -86.2802L210.294 7.78535M45.6581 106.405L134.06 104.758L210.294 7.78535M-53.2232 299.589L-158.341 146.497L-158.344 146.486L22.9277 179.403M-53.2232 299.589L22.9277 179.403M-53.2232 299.589L-1.15613 363.613M22.9277 179.403L45.6551 106.394L134.057 104.748M210.302 7.77148L276.23 -50.8721M210.302 7.77148L281.601 41.5561M210.302 7.77148L197.869 146.078L281.601 41.5561M134.057 104.748L197.858 146.081M134.057 104.748L210.291 7.77441M276.23 -50.8721L213.495 -177.13M276.23 -50.8721L276.227 -50.8831L149.517 -112.696L213.495 -177.13M276.23 -50.8721L397.382 -241.229M276.23 -50.8721L447.799 -205.046M276.23 -50.8721L276.233 -50.8612L397.385 -241.218L447.799 -205.046M276.23 -50.8721L444.398 -1.81926L447.799 -205.046M276.23 -50.8721L281.59 41.559L442.542 -0.923661L276.23 -50.8721ZM276.23 -50.8721L276.24 -50.8751L281.601 41.5561M213.495 -177.13L76.6723 -148.011L149.52 -112.685M213.495 -177.13L213.498 -177.119L149.52 -112.685M213.495 -177.13L85.7478 -206.845M213.495 -177.13L213.503 -177.144L76.6803 -148.025L85.7478 -206.845M213.495 -177.13L397.382 -241.229M213.495 -177.13L213.506 -177.133M213.495 -177.13L138.02 -298.311L85.7478 -206.845M149.52 -112.685L210.291 7.77441M149.52 -112.685L149.509 -112.682L276.219 -50.8692L210.291 7.77441M210.291 7.77441L197.858 146.081M76.6832 -148.014L85.7507 -206.834L-48.171 -93.6775L76.6861 -148.003L76.6832 -148.014ZM76.6832 -148.014L122.797 -85.709L149.562 -112.661L76.6832 -148.014ZM397.382 -241.229L192.122 -313.979M192.122 -313.979L213.506 -177.133M192.122 -313.979L138.031 -298.314L213.506 -177.133M192.122 -313.979L264.572 -386.96L340.367 -261.438L192.122 -313.979ZM447.799 -205.046L508.205 -186.695L445.828 -5.22397L447.799 -205.046Z" stroke="url(#paint0_linear_16_1779)" stroke-width="1.61" stroke-miterlimit="10"/>
<defs>
<linearGradient id="paint0_linear_16_1779" x1="-112.832" y1="257.258" x2="418.207" y2="-277.687" gradientUnits="userSpaceOnUse">
<stop stop-color="#95D3EC"/>
<stop offset="0.15" stop-color="#92CFE8" stop-opacity="0.99"/>
<stop offset="0.29" stop-color="#8CC6DD" stop-opacity="0.94"/>
<stop offset="0.41" stop-color="#80B6CB" stop-opacity="0.86"/>
<stop offset="0.53" stop-color="#709FB2" stop-opacity="0.76"/>
<stop offset="0.65" stop-color="#5C8292" stop-opacity="0.62"/>
<stop offset="0.77" stop-color="#425E69" stop-opacity="0.45"/>
<stop offset="0.88" stop-color="#24343A" stop-opacity="0.25"/>
<stop offset="0.99" stop-color="#030405" stop-opacity="0.02"/>
<stop offset="1" stop-opacity="0"/>
</linearGradient>
</defs>
</svg>
