<svg width="526" height="669" viewBox="0 0 526 669" fill="none" xmlns="http://www.w3.org/2000/svg">
<path style="mix-blend-mode:screen" opacity="0.52" d="M794.35 477.728L786.472 342.715M794.35 477.728L794.358 477.742M794.35 477.728L741.553 614.248L632.277 415.738M794.35 477.728L632.277 415.738M786.472 342.715L842.815 393.104M786.472 342.715L632.285 415.752M786.472 342.715L786.48 342.729L794.358 477.742M786.472 342.715L629.405 354.293L632.285 415.752M786.472 342.715L788.501 244.184M786.472 342.715L878.336 244.716M786.472 342.715L786.478 342.693M842.815 393.104L794.358 477.742M842.815 393.104L878.336 244.716M794.358 477.742L632.285 415.752M632.285 415.752L741.561 614.262L498.023 672.383M632.285 415.752L632.277 415.738M632.277 415.738L498.023 672.383M632.277 415.738L534.156 375.873M632.277 415.738L632.269 415.724L498.015 672.368L534.156 375.873M632.277 415.738L629.397 354.278M788.501 244.184L538.551 266.022M788.501 244.184L629.397 354.278M788.501 244.184L786.464 342.701L629.397 354.278M788.501 244.184L786.478 342.693M538.551 266.022L629.397 354.278M538.551 266.022L503.471 1.23653M538.551 266.022L599.584 70.7706L599.606 70.7765M538.551 266.022L383.832 273.501L503.471 1.23653M629.397 354.278L534.156 375.873M878.336 244.716L788.515 244.176L786.478 342.693M878.336 244.716L786.478 342.693M498.023 672.383L471.442 718.793L342.218 574.114M498.023 672.383L342.218 574.114M498.023 672.383L577.205 653.486M538.565 266.013L534.17 375.865M538.565 266.013L629.411 354.27L534.17 375.865M538.565 266.013L412.019 411.062M538.565 266.013L538.573 266.027M538.565 266.013L308.033 377.401M538.565 266.013L383.847 273.493L308.033 377.401M534.17 375.865L342.224 574.092M534.17 375.865L498.029 672.36L342.224 574.092M534.17 375.865L412.011 411.048L342.224 574.092M599.606 70.7765L802.562 244.272L802.57 244.286L538.573 266.027M599.606 70.7765L538.573 266.027M599.606 70.7765L503.471 1.23653M538.573 266.027L534.178 375.879L412.019 411.062M342.218 574.114L272.482 680.091M342.218 574.114L230.627 553.727M342.218 574.114L308.019 377.409L230.627 553.727M412.019 411.062L308.033 377.401M412.019 411.062L342.232 574.106M272.482 680.091L406.591 832.091M272.482 680.091L272.49 680.105L471.465 718.798L406.591 832.091M272.482 680.091L175.063 989.54M272.482 680.091L91.5813 958.051M272.482 680.091L272.474 680.077L175.055 989.526L91.5813 958.051M272.482 680.091L20.6777 674.546L91.5813 958.051M272.482 680.091L230.641 553.718L22.9225 672.612L272.482 680.091ZM272.482 680.091L272.468 680.099L230.627 553.727M406.591 832.091L585.772 740.735L471.457 718.784M406.591 832.091L406.583 832.077L471.457 718.784M406.591 832.091L595.062 825.821M406.591 832.091L406.585 832.113L585.766 740.758L595.062 825.821M406.591 832.091L175.063 989.54M406.591 832.091L406.577 832.099M406.591 832.091L556.504 972.3L595.062 825.821M471.457 718.784L342.232 574.106M471.457 718.784L471.471 718.776L272.496 680.083L342.232 574.106M342.232 574.106L308.033 377.401M585.758 740.743L595.054 825.807L738.934 618.821L585.75 740.729L585.758 740.743ZM585.758 740.743L498.531 671.376L471.39 718.767L585.758 740.743ZM175.063 989.54L487.198 1014.19M487.198 1014.19L406.577 832.099M487.198 1014.19L556.49 972.308L406.577 832.099M487.198 1014.19L413.739 1142.51L261.766 996.389L487.198 1014.19ZM91.5813 958.051L0.860794 955.043L19.9587 679.807L91.5813 958.051Z" stroke="url(#paint0_linear_16_881)" stroke-width="1.61" stroke-miterlimit="10"/>
<defs>
<linearGradient id="paint0_linear_16_881" x1="698.142" y1="107.384" x2="159.709" y2="1047.92" gradientUnits="userSpaceOnUse">
<stop stop-color="#95D3EC"/>
<stop offset="0.15" stop-color="#92CFE8" stop-opacity="0.99"/>
<stop offset="0.29" stop-color="#8CC6DD" stop-opacity="0.94"/>
<stop offset="0.41" stop-color="#80B6CB" stop-opacity="0.86"/>
<stop offset="0.53" stop-color="#709FB2" stop-opacity="0.76"/>
<stop offset="0.65" stop-color="#5C8292" stop-opacity="0.62"/>
<stop offset="0.77" stop-color="#425E69" stop-opacity="0.45"/>
<stop offset="0.88" stop-color="#24343A" stop-opacity="0.25"/>
<stop offset="0.99" stop-color="#030405" stop-opacity="0.02"/>
<stop offset="1" stop-opacity="0"/>
</linearGradient>
</defs>
</svg>
