<svg width="16" height="16" viewBox="0 0 16 16" fill="none" xmlns="http://www.w3.org/2000/svg">
<g clip-path="url(#clip0_36_174)">
<path d="M6.8313 9.26516L9.36961 7.80324L6.8313 6.34131V9.26516Z" fill="#2B2A29"/>
<path d="M14.481 0H1.12556C0.503899 0 0 0.503899 0 1.12556V14.481C0 15.1027 0.503899 15.6066 1.12556 15.6066H14.481C15.1027 15.6066 15.6066 15.1027 15.6066 14.481V1.12556C15.6066 0.503899 15.1027 0 14.481 0ZM12.6792 7.81127C12.6792 7.81127 12.6792 9.39382 12.4784 10.1569C12.3659 10.5746 12.0366 10.904 11.6189 11.0164C10.8557 11.2172 7.8033 11.2172 7.8033 11.2172C7.8033 11.2172 4.75883 11.2172 3.98774 11.0084C3.57004 10.896 3.2407 10.5665 3.12818 10.1488C2.92731 9.39382 2.92731 7.8033 2.92731 7.8033C2.92731 7.8033 2.92731 6.22087 3.12818 5.45776C3.24058 5.04007 3.57802 4.70262 3.98774 4.59022C4.75085 4.38935 7.8033 4.38935 7.8033 4.38935C7.8033 4.38935 10.8557 4.38935 11.6189 4.5982C12.0366 4.7106 12.3659 5.04007 12.4784 5.45776C12.6873 6.22087 12.6792 7.81127 12.6792 7.81127Z" fill="#2B2A29"/>
</g>
<defs>
<clipPath id="clip0_36_174">
<rect width="15.6066" height="15.6066" rx="6" fill="white"/>
</clipPath>
</defs>
</svg>
