<svg width="98" height="96" viewBox="0 0 98 96" fill="none" xmlns="http://www.w3.org/2000/svg">
<path d="M51.2157 29.5259H64.16L47.0934 12.4591V25.4036C47.0934 27.6802 48.9389 29.5259 51.2157 29.5259Z" stroke="white" stroke-width="3" stroke-miterlimit="10" stroke-linecap="round" stroke-linejoin="round"/>
<path d="M1.5 16.5816V90.2894C1.5 92.5663 3.34552 94.4119 5.62227 94.4119H60.0376C62.3143 94.4119 64.16 92.5663 64.16 90.2894V29.5259L47.0933 12.4592H5.62227C3.34552 12.4592 1.5 14.3049 1.5 16.5816Z" stroke="white" stroke-width="3" stroke-miterlimit="10" stroke-linecap="round" stroke-linejoin="round"/>
<path d="M11.3937 39.6309H54.2663" stroke="white" stroke-width="3" stroke-miterlimit="10" stroke-linecap="round" stroke-linejoin="round"/>
<path d="M11.3937 50.624H54.2663" stroke="white" stroke-width="3" stroke-miterlimit="10" stroke-linecap="round" stroke-linejoin="round"/>
<path d="M11.3937 61.6172H54.2663" stroke="white" stroke-width="3" stroke-miterlimit="10" stroke-linecap="round" stroke-linejoin="round"/>
<path d="M11.3937 72.6101H54.2663" stroke="white" stroke-width="3" stroke-miterlimit="10" stroke-linecap="round" stroke-linejoin="round"/>
<path d="M83.5557 18.5667H96.5L79.4335 1.5001V14.4444C79.4335 16.7211 81.279 18.5667 83.5557 18.5667Z" stroke="white" stroke-width="3" stroke-miterlimit="10" stroke-linecap="round" stroke-linejoin="round"/>
<path d="M63.3056 28.6379H86.6062" stroke="white" stroke-width="3" stroke-miterlimit="10" stroke-linecap="round" stroke-linejoin="round"/>
<path d="M64.1599 39.6309H86.6063" stroke="white" stroke-width="3" stroke-miterlimit="10" stroke-linecap="round" stroke-linejoin="round"/>
<path d="M64.1599 50.624H86.6063" stroke="white" stroke-width="3" stroke-miterlimit="10" stroke-linecap="round" stroke-linejoin="round"/>
<path d="M64.1599 61.6172H86.6063" stroke="white" stroke-width="3" stroke-miterlimit="10" stroke-linecap="round" stroke-linejoin="round"/>
<path d="M79.4334 1.50015H37.9624C35.6856 1.50015 33.8401 3.34568 33.8401 5.62243V12.4596H47.0934L64.16 29.5261V83.4526H92.3777C94.6544 83.4526 96.4999 81.6071 96.4999 79.3304V18.5667L79.4334 1.50015Z" stroke="white" stroke-width="3" stroke-miterlimit="10" stroke-linecap="round" stroke-linejoin="round"/>
</svg>
