<svg width="107" height="108" viewBox="0 0 107 108" fill="none" xmlns="http://www.w3.org/2000/svg">
<path d="M13.2312 60.4192H56.1993" stroke="white" stroke-width="3" stroke-miterlimit="10" stroke-linecap="round" stroke-linejoin="round"/>
<path d="M13.2312 70.324H56.1993" stroke="white" stroke-width="3" stroke-miterlimit="10" stroke-linecap="round" stroke-linejoin="round"/>
<path d="M13.2312 80.2278H34.7154" stroke="white" stroke-width="3" stroke-miterlimit="10" stroke-linecap="round" stroke-linejoin="round"/>
<path d="M54.5245 40.6096H97.4929" stroke="white" stroke-width="3" stroke-miterlimit="10" stroke-linecap="round" stroke-linejoin="round"/>
<path d="M76.0087 50.5144H97.4929" stroke="white" stroke-width="3" stroke-miterlimit="10" stroke-linecap="round" stroke-linejoin="round"/>
<path d="M9.64795 10.3469H41.0398" stroke="white" stroke-width="3" stroke-miterlimit="10" stroke-linecap="round" stroke-linejoin="round"/>
<path d="M9.64795 18.1941H25.3439" stroke="white" stroke-width="3" stroke-miterlimit="10" stroke-linecap="round" stroke-linejoin="round"/>
<path d="M59.3698 48.7179H10.0608C5.33273 48.7179 1.5 52.5505 1.5 57.2785V82.7466C1.5 87.4744 5.33273 91.3073 10.0608 91.3073H10.8707C11.6113 91.3073 12.1716 91.9774 12.0401 92.7061L9.93101 104.418C9.77238 105.298 10.8311 105.87 11.4801 105.253L25.3689 92.0695C25.8846 91.5802 26.5683 91.3073 27.2792 91.3073H59.3698C64.0979 91.3073 67.9306 87.4744 67.9306 82.7466V57.2785C67.9306 52.5505 64.0979 48.7179 59.3698 48.7179Z" stroke="white" stroke-width="3" stroke-miterlimit="10" stroke-linecap="round" stroke-linejoin="round"/>
<path d="M1.58093 14.0067V21.7731C1.58093 24.2621 3.59859 26.2799 6.08734 26.2799H17.7942C18.3783 26.2799 18.918 26.5909 19.2108 27.0963L24.2109 35.7287C24.7153 36.5995 25.9726 36.5995 26.477 35.7287L31.4771 27.0963C31.7699 26.5909 32.3098 26.2799 32.8939 26.2799H44.6005C47.0893 26.2799 49.1069 24.2621 49.1069 21.7731V6.00624C49.1069 3.51753 47.0893 1.49989 44.6005 1.49989H6.08734C3.59859 1.49989 1.58093 3.51753 1.58093 6.00624V6.66944" stroke="white" stroke-width="3" stroke-miterlimit="10" stroke-linecap="round" stroke-linejoin="round"/>
<path d="M75.2679 68.4789H82.6117C83.2428 68.4789 83.8502 68.7211 84.3079 69.1557L96.6409 80.8629C97.2172 81.4099 98.1573 80.9026 98.0163 80.1206L96.1434 69.7212C96.0269 69.0739 96.5243 68.4789 97.1821 68.4789H97.9012C102.1 68.4789 105.503 65.0755 105.503 60.8774V38.5587C105.503 34.3606 102.1 30.9571 97.9012 30.9571H54.1162C49.9179 30.9571 46.5146 34.3606 46.5146 38.5587V41.381" stroke="white" stroke-width="3" stroke-miterlimit="10" stroke-linecap="round" stroke-linejoin="round"/>
</svg>
