<svg width="96" height="92" viewBox="0 0 96 92" fill="none" xmlns="http://www.w3.org/2000/svg">
<path d="M55.3308 19.9795H69.3465L50.8673 1.50008V15.516C50.8673 17.981 52.8656 19.9795 55.3308 19.9795Z" stroke="white" stroke-width="3" stroke-miterlimit="10" stroke-linecap="round" stroke-linejoin="round"/>
<path d="M69.3466 44.16V19.98L50.8672 1.50063H5.96349C3.49828 1.50063 1.5 3.49912 1.5 5.96432V85.7731C1.5 88.2385 3.49828 90.2368 5.96349 90.2368H64.8829C67.3481 90.2368 69.3466 88.2385 69.3466 85.7731V81.5843" stroke="white" stroke-width="3" stroke-miterlimit="10" stroke-linecap="round" stroke-linejoin="round"/>
<path d="M12.2128 30.9211H58.634" stroke="white" stroke-width="3" stroke-miterlimit="10" stroke-linecap="round" stroke-linejoin="round"/>
<path d="M12.2128 42.8247H58.634" stroke="white" stroke-width="3" stroke-miterlimit="10" stroke-linecap="round" stroke-linejoin="round"/>
<path d="M12.2128 54.7273H52.566" stroke="white" stroke-width="3" stroke-miterlimit="10" stroke-linecap="round" stroke-linejoin="round"/>
<path d="M12.2128 66.6299H40.6144" stroke="white" stroke-width="3" stroke-miterlimit="10" stroke-linecap="round" stroke-linejoin="round"/>
<path d="M90.1895 47.1722L93.4483 43.9151C94.0026 43.3608 94.0026 42.4635 93.4483 41.9092L89.5774 38.0383C89.0231 37.484 88.1258 37.484 87.5715 38.0383L84.3145 41.2971" stroke="white" stroke-width="3" stroke-miterlimit="10" stroke-linecap="round" stroke-linejoin="round"/>
<path d="M90.1136 52.3855L91.966 54.2379C92.9626 55.2327 92.9626 56.8486 91.966 57.8452L86.871 62.9421" stroke="white" stroke-width="3" stroke-miterlimit="10" stroke-linecap="round" stroke-linejoin="round"/>
<path d="M53.0662 67.4063C52.5103 67.9622 52.1514 68.6847 52.0442 69.4638L50.8906 77.8502C50.6707 79.4488 52.0377 80.8155 53.636 80.5956L62.0225 79.4421C62.8014 79.335 63.5239 78.9761 64.08 78.42L91.4494 51.0507C92.1725 50.3276 92.1725 49.1553 91.4494 48.4322L83.0541 40.0369C82.331 39.3139 81.1587 39.3139 80.4356 40.0369L53.0662 67.4063Z" stroke="white" stroke-width="3" stroke-miterlimit="10" stroke-linecap="round" stroke-linejoin="round"/>
<path d="M72.3404 70.159L61.3267 59.1453" stroke="white" stroke-width="3" stroke-miterlimit="10" stroke-linecap="round" stroke-linejoin="round"/>
</svg>
