<svg width="124" height="109" viewBox="0 0 124 109" fill="none" xmlns="http://www.w3.org/2000/svg">
<path d="M97.4155 68.783L113.847 53.2441C125.384 41.7068 125.384 23.0014 113.847 11.4641C102.31 -0.0731356 83.6044 -0.0731356 72.0671 11.4641L48.7972 34.0725C44.8799 37.8629 44.8284 44.1276 48.6829 47.9818V47.982C52.4926 51.7918 58.6699 51.7918 62.4797 47.982L66.6453 43.8164C68.2478 42.2139 70.8464 42.2139 72.4489 43.8164L98.3106 69.6781C101.442 72.8097 101.442 77.8869 98.3106 81.0185C95.1793 84.1501 90.1021 84.1501 86.9706 81.0185" stroke="#1BA3B9" stroke-width="3" stroke-miterlimit="10" stroke-linecap="round" stroke-linejoin="round"/>
<path d="M67.356 85.7598L74.3749 92.7788C77.7376 96.1414 83.1893 96.1414 86.5519 92.7788C89.9144 89.4164 89.9144 83.9645 86.5519 80.6018L79.4958 73.5457" stroke="#1BA3B9" stroke-width="3" stroke-miterlimit="10" stroke-linecap="round" stroke-linejoin="round"/>
<path d="M63.5634 19.615L54.5499 10.6018C42.4141 -1.534 22.7379 -1.534 10.6019 10.6018C-1.53395 22.7378 -1.53395 42.414 10.6019 54.5498L13.9155 57.8635" stroke="#1BA3B9" stroke-width="3" stroke-miterlimit="10" stroke-linecap="round" stroke-linejoin="round"/>
<path d="M35.1832 99.02L35.2945 99.131C38.7172 102.554 44.2668 102.554 47.6895 99.131L52.1744 94.6464C55.5973 91.2234 55.5973 85.6738 52.1744 82.2511L52.0633 82.1401C48.6404 78.7172 43.091 78.7172 39.6681 82.1401L35.1832 86.6248C31.7605 90.0477 31.7605 95.5973 35.1832 99.02Z" stroke="#1BA3B9" stroke-width="3" stroke-miterlimit="10" stroke-linecap="round" stroke-linejoin="round"/>
<path d="M22.4859 86.7053L22.5969 86.8163C26.0199 90.2393 31.5692 90.2393 34.9919 86.8163L46.3006 75.5081C49.7233 72.0852 49.7233 66.5356 46.3006 63.1129L46.1894 63.0019C42.7667 59.5789 37.2171 59.5789 33.7944 63.0019L22.4859 74.3101C19.0632 77.733 19.0632 83.2826 22.4859 86.7053Z" stroke="#1BA3B9" stroke-width="3" stroke-miterlimit="10" stroke-linecap="round" stroke-linejoin="round"/>
<path d="M9.97916 74.1987L10.0902 74.3097C13.5131 77.7327 19.0627 77.7327 22.4854 74.3097L29.4037 67.3915C32.8266 63.9688 32.8266 58.4194 29.4037 54.9965L29.2927 54.8852C25.8697 51.4625 20.3204 51.4625 16.8974 54.8852L9.97916 61.8037C6.55647 65.2264 6.55647 70.776 9.97916 74.1987Z" stroke="#1BA3B9" stroke-width="3" stroke-miterlimit="10" stroke-linecap="round" stroke-linejoin="round"/>
<path d="M52.0439 94.8049L62.1967 104.958C65.5594 108.32 71.011 108.32 74.3737 104.958C77.7364 101.595 77.7364 96.1433 74.3737 92.7807" stroke="#1BA3B9" stroke-width="3" stroke-miterlimit="10" stroke-linecap="round" stroke-linejoin="round"/>
</svg>
