<svg width="117" height="117" viewBox="0 0 117 117" fill="none" xmlns="http://www.w3.org/2000/svg">
<path d="M44.5461 8.59619H6.23035C3.61786 8.59619 1.5 10.7141 1.5 13.3265V41.7086C1.5 44.3211 3.61786 46.439 6.23035 46.439H10.9607V58.2649L25.1517 46.439H44.5461" stroke="#1BA3B9" stroke-width="3" stroke-miterlimit="10" stroke-linecap="round" stroke-linejoin="round"/>
<path d="M27.5171 84.7375L25.939 83.1594C23.3242 80.5445 19.0847 80.5445 16.4699 83.1594C13.8551 85.7742 13.8551 90.0136 16.4699 92.6284L27.5173 103.676L38.5647 92.6284C41.1795 90.0136 41.1795 85.7742 38.5647 83.1594C35.9499 80.5445 31.7105 80.5445 29.0956 83.1594L27.5171 84.7375Z" stroke="#1BA3B9" stroke-width="3" stroke-miterlimit="10" stroke-linecap="round" stroke-linejoin="round"/>
<path d="M84.7539 32.2481H96.5769C101.094 32.2481 104.461 36.4133 103.515 40.8303L99.4605 59.7516C98.7595 63.0232 95.8683 65.3605 92.5225 65.3605H74.3602C73.4263 65.3605 72.5134 65.0841 71.7363 64.566L65.8325 60.6302H58.7369V32.2481H65.8325L70.8215 28.922C72.1374 28.0447 72.928 26.5678 72.928 24.9862V13.3267H75.2932C80.5181 13.3267 84.7539 17.5624 84.7539 22.7874V32.2481Z" stroke="#1BA3B9" stroke-width="3" stroke-miterlimit="10" stroke-linecap="round" stroke-linejoin="round"/>
<path d="M44.5461 8.59552V70.0898C44.5461 74.0087 47.7228 77.1854 51.6417 77.1854H87.1193V91.3764L101.31 77.1854H108.406C112.325 77.1854 115.501 74.0087 115.501 70.0898V8.59552C115.501 4.67668 112.324 1.5 108.406 1.5H51.6417C47.7228 1.5 44.5461 4.67668 44.5461 8.59552Z" stroke="#1BA3B9" stroke-width="3" stroke-miterlimit="10" stroke-linecap="round" stroke-linejoin="round"/>
<path d="M43.8337 68.198H6.23035C3.61786 68.198 1.5 70.3159 1.5 72.9283V110.771C1.5 113.383 3.61786 115.501 6.23035 115.501H48.8033C51.4157 115.501 53.5336 113.383 53.5336 110.771V106.041L65.3595 91.8495H53.5336V78.1575" stroke="#1BA3B9" stroke-width="3" stroke-miterlimit="10" stroke-linecap="round" stroke-linejoin="round"/>
</svg>
